<svg x="0" y="0" height="2500" viewBox="0 0 5000 2500" xmlns="http://www.w3.org/2000/svg" xmlns:xlink="http://www.w3.org/1999/xlink" xmlns:fi="http://pattern.flaticon.com/" width="5000">
<defs>
	<g transform="matrix(1 0 0 1 -100 -30)" id="L1_0" >
		<g id="Layer_3">
	<path fill=" #ff0066" class="st1" d="M-216.6,405.9l-0.8-0.8c-0.4-0.4-1.1-0.4-1.6,0c-0.4,0.4-0.4,1.1,0,1.6l1.4,1.4l-0.5,0.5l-1.4-1.4   c-0.4-0.4-1.1-0.4-1.6,0c-0.4,0.4-0.4,1.1,0,1.6l1.4,1.4l-1.1,1.1c-0.4,0.4-0.4,1.1,0,1.6c0.4,0.4,1.1,0.4,1.6,0l1.1-1.1l1.4,1.4   c0.4,0.4,1.1,0.4,1.6,0c0.4-0.4,0.4-1.1,0-1.6l-1.4-1.4l0.5-0.5l1.4,1.4c0.4,0.4,1.1,0.4,1.6,0c0.4-0.4,0.4-1.1,0-1.6l-0.8-0.8   l6-1.3c0.6-0.1,1-0.7,0.8-1.3c-0.1-0.6-0.7-1-1.3-0.8l-6.1,1.3l1.3-6.1c0.1-0.6-0.2-1.2-0.8-1.3c-0.6-0.1-1.2,0.2-1.3,0.8   L-216.6,405.9z"/>
	<g transform="translate(11.31012563937032, 11.470725530118692), scale(0.7475194914833391)">
		<path class="st1" d="M-292.7,564.6c-0.5,0-0.9-0.2-1.3-0.5l-43.5-43.5c-0.3-0.3-0.5-0.8-0.5-1.3c0-0.5,0.2-0.9,0.5-1.3l23.4-23.4    c0.7-0.7,1.9-0.7,2.5,0l43.5,43.5c0.3,0.3,0.5,0.8,0.5,1.3s-0.2,0.9-0.5,1.3l-23.4,23.4C-291.8,564.4-292.2,564.6-292.7,564.6z     M-333.7,519.3l41,41l20.9-20.9l-41-41L-333.7,519.3z"/>
		<path class="st1" d="M-312.5,509.3C-312.5,509.3-312.5,509.3-312.5,509.3c-3.4,0-6.6-1.3-9-3.7c-0.7-0.7-0.7-1.8,0-2.5    c0.7-0.7,1.8-0.7,2.5,0c1.7,1.7,4,2.7,6.5,2.7c0,0,0,0,0,0c2.4,0,4.8-1,6.5-2.7c0.7-0.7,1.8-0.7,2.5,0c0.7,0.7,0.7,1.8,0,2.5    C-305.9,508-309.1,509.3-312.5,509.3z"/>
		<path class="st1" d="M-300.1,556.8c-0.5,0-0.9-0.2-1.3-0.5c-0.7-0.7-0.7-1.8,0-2.5c5-5,13.1-5,18,0c0.7,0.7,0.7,1.8,0,2.5    c-0.7,0.7-1.8,0.7-2.5,0c-3.6-3.6-9.4-3.6-13,0C-299.2,556.6-299.7,556.8-300.1,556.8z"/>
		<path class="st1" d="M-277.2,548.9c-0.5,0-0.9-0.2-1.3-0.5c-2.4-2.4-3.7-5.6-3.7-8.9c0-3.3,1.3-6.4,3.8-8.8c0.7-0.7,1.8-0.7,2.5,0    c0.7,0.7,0.7,1.8,0,2.5c-1.7,1.7-2.7,4-2.7,6.3c0,2.3,0.9,4.6,2.7,6.3c0.7,0.7,0.7,1.8,0,2.5    C-276.3,548.7-276.7,548.9-277.2,548.9z"/>
		<path class="st1" d="M-327.8,529.1c-0.5,0-0.9-0.2-1.3-0.5c-0.7-0.7-0.7-1.8,0-2.5c1.7-1.7,2.7-4,2.7-6.5c0-2.4-1-4.8-2.7-6.5    c-0.7-0.7-0.7-1.8,0-2.5c0.7-0.7,1.8-0.7,2.5,0c2.4,2.4,3.7,5.6,3.7,9c0,3.4-1.3,6.6-3.7,9C-326.9,529-327.3,529.1-327.8,529.1z"/>
		<path class="st1" d="M-302.8,545.5c-4.3,0-8.3-1.7-11.3-4.7c-6.3-6.3-6.3-16.4,0-22.7c3-3,7.1-4.7,11.3-4.7    c4.3,0,8.3,1.7,11.3,4.7c6.3,6.3,6.3,16.4,0,22.7C-294.5,543.9-298.5,545.5-302.8,545.5z M-302.8,517c-3.3,0-6.5,1.3-8.8,3.6    c-4.9,4.9-4.9,12.8,0,17.6c2.4,2.4,5.5,3.6,8.8,3.6s6.5-1.3,8.8-3.6c4.9-4.9,4.9-12.8,0-17.6C-296.4,518.3-299.5,517-302.8,517z"/>
	</g>
</g>
<g id="Layer_5">
	<g>
		<g>
			<path fill="#3366cc" class="st1" d="M-222.4,486.2l1.5,1.5l-1.3,1.3c-0.1,0.1-0.1,0.1-0.1,0.2c0,0.1,0,0.2,0.1,0.2l1.2,1.2     c0.1,0.1,0.1,0.1,0.2,0.1c0.1,0,0.2,0,0.2-0.1l1.3-1.3l3.5,3.5c0.1,0.1,0.1,0.1,0.2,0.1c0.1,0,0.2,0,0.2-0.1l0.9-0.9     c0.1-0.1,0.1-0.1,0.1-0.2c0-0.1,0-0.2-0.1-0.2l-3.5-3.5l0.8-0.8l2.3,2.3c0.9,0.9,2,1.4,3.1,1.4c1.1,0,2.2-0.4,3-1.3     c0.9-0.9,1.3-1.9,1.3-3c0-1.1-0.5-2.2-1.4-3.1l-3.7-3.7c-0.1-0.1-0.1-0.1-0.2-0.1c-0.1,0-0.2,0-0.2,0.1l-4.3,4.3l-1.5-1.5     c-0.1-0.1-0.1-0.1-0.2-0.1c-0.1,0-0.2,0-0.2,0.1l-1,1c-0.1,0.1-0.1,0.1-0.1,0.2c0,0.1,0,0.2,0.1,0.2l1.5,1.5l-0.8,0.8l-1.5-1.5     c-0.1-0.1-0.1-0.1-0.2-0.1c-0.1,0-0.2,0-0.2,0.1l-0.9,0.9c-0.1,0.1-0.1,0.1-0.1,0.2C-222.5,486.1-222.4,486.2-222.4,486.2z      M-212.5,482.7l2.2,2.2c0.5,0.5,0.7,1,0.8,1.6c0,0.6-0.2,1.1-0.7,1.6c-0.5,0.5-1,0.7-1.6,0.7c-0.6,0-1.1-0.3-1.6-0.8l-2.2-2.2     L-212.5,482.7z"/>
		</g>
	</g>
	<g transform="translate(11.31012563937032, 11.470725530118692), scale(0.7475194914833391)">
		<path class="st1" d="M-292.7,671c-0.5,0-0.9-0.2-1.3-0.5l-43.5-43.5c-0.3-0.3-0.5-0.8-0.5-1.3c0-0.5,0.2-0.9,0.5-1.3L-314,601    c0.7-0.7,1.9-0.7,2.5,0l43.5,43.5c0.3,0.3,0.5,0.8,0.5,1.3s-0.2,0.9-0.5,1.3l-23.4,23.4C-291.8,670.8-292.2,671-292.7,671z     M-333.7,625.7l41,41l20.9-20.9l-41-41L-333.7,625.7z"/>
		<path class="st1" d="M-312.5,615.7C-312.5,615.7-312.5,615.7-312.5,615.7c-3.4,0-6.6-1.3-9-3.7c-0.7-0.7-0.7-1.8,0-2.5    c0.7-0.7,1.8-0.7,2.5,0c1.7,1.7,4,2.7,6.5,2.7c0,0,0,0,0,0c2.4,0,4.8-1,6.5-2.7c0.7-0.7,1.8-0.7,2.5,0c0.7,0.7,0.7,1.8,0,2.5    C-305.9,614.4-309.1,615.7-312.5,615.7z"/>
		<path class="st1" d="M-300.1,663.1c-0.5,0-0.9-0.2-1.3-0.5c-0.7-0.7-0.7-1.8,0-2.5c5-5,13.1-5,18,0c0.7,0.7,0.7,1.8,0,2.5    c-0.7,0.7-1.8,0.7-2.5,0c-3.6-3.6-9.4-3.6-13,0C-299.2,663-299.7,663.1-300.1,663.1z"/>
		<path class="st1" d="M-277.2,655.3c-0.5,0-0.9-0.2-1.3-0.5c-2.4-2.4-3.7-5.6-3.7-8.9c0-3.3,1.3-6.4,3.8-8.8c0.7-0.7,1.8-0.7,2.5,0    s0.7,1.8,0,2.5c-1.7,1.7-2.7,4-2.7,6.3c0,2.3,0.9,4.6,2.7,6.3c0.7,0.7,0.7,1.8,0,2.5C-276.3,655.1-276.7,655.3-277.2,655.3z"/>
		<path class="st1" d="M-327.8,635.5c-0.5,0-0.9-0.2-1.3-0.5c-0.7-0.7-0.7-1.8,0-2.5c1.7-1.7,2.7-4,2.7-6.5c0-2.4-1-4.8-2.7-6.5    c-0.7-0.7-0.7-1.8,0-2.5c0.7-0.7,1.8-0.7,2.5,0c2.4,2.4,3.7,5.6,3.7,9c0,3.4-1.3,6.6-3.7,9C-326.9,635.3-327.3,635.5-327.8,635.5z    "/>
		<path class="st1" d="M-302.8,651.9c-4.3,0-8.3-1.7-11.3-4.7c-6.3-6.3-6.3-16.4,0-22.7c3-3,7.1-4.7,11.3-4.7    c4.3,0,8.3,1.7,11.3,4.7c6.3,6.3,6.3,16.4,0,22.7C-294.5,650.2-298.5,651.9-302.8,651.9z M-302.8,623.4c-3.3,0-6.5,1.3-8.8,3.6    c-4.9,4.9-4.9,12.8,0,17.6c2.4,2.4,5.5,3.6,8.8,3.6s6.5-1.3,8.8-3.6c4.9-4.9,4.9-12.8,0-17.6    C-296.4,624.7-299.5,623.4-302.8,623.4z"/>
	</g>
</g>
<g id="Layer_4">
	<g>
		<path fill="#cccc00" class="st1" d="M-136.5,494.4l1.8-1.8l-3.9-3.9l0,0c0.7,0,1.3-0.1,1.9-0.4c0.5-0.3,0.9-0.6,1.3-1l1.9,1.9l1.5-1.5l-2.1-2.1    c0.3-0.5,0.6-0.9,1-1.3c0.4-0.4,0.8-0.6,1.3-0.7c0.5-0.1,1,0.1,1.5,0.7c0.5,0.6,0.9,1.1,1,1.6l2.1-1.3c-0.1-0.3-0.2-0.6-0.5-0.9    c-0.2-0.4-0.5-0.8-0.9-1.2c-1-1-2.1-1.5-3.3-1.6c-1.2,0-2.2,0.4-3.2,1.3c-0.4,0.4-0.8,0.9-1.1,1.4l-1.2-1.2l-1.5,1.5l1.5,1.5    c-0.2,0.2-0.4,0.4-0.6,0.7c-0.6,0.5-1.2,0.8-1.9,0.9s-1.4,0-2-0.3l-1.2,1.2L-136.5,494.4z"/>
	</g>
	<g transform="translate(11.31012563937032, 11.470725530118692), scale(0.7475194914833391)">
		<path class="st1" d="M-185.7,671c-0.5,0-0.9-0.2-1.3-0.5l-43.5-43.5c-0.3-0.3-0.5-0.8-0.5-1.3c0-0.5,0.2-0.9,0.5-1.3l23.4-23.4    c0.7-0.7,1.9-0.7,2.5,0l43.5,43.5c0.3,0.3,0.5,0.8,0.5,1.3s-0.2,0.9-0.5,1.3l-23.4,23.4C-184.8,670.8-185.3,671-185.7,671z     M-226.7,625.7l41,41l20.9-20.9l-41-41L-226.7,625.7z"/>
		<path class="st1" d="M-205.5,615.7C-205.5,615.7-205.5,615.7-205.5,615.7c-3.4,0-6.6-1.3-9-3.7c-0.7-0.7-0.7-1.8,0-2.5    c0.7-0.7,1.8-0.7,2.5,0c1.7,1.7,4,2.7,6.5,2.7c0,0,0,0,0,0c2.4,0,4.8-1,6.5-2.7c0.7-0.7,1.8-0.7,2.5,0c0.7,0.7,0.7,1.8,0,2.5    C-198.9,614.4-202.1,615.7-205.5,615.7z"/>
		<path class="st1" d="M-193.2,663.1c-0.5,0-0.9-0.2-1.3-0.5c-0.7-0.7-0.7-1.8,0-2.5c5-5,13.1-5,18,0c0.7,0.7,0.7,1.8,0,2.5    c-0.7,0.7-1.8,0.7-2.5,0c-3.6-3.6-9.4-3.6-13,0C-192.3,663-192.7,663.1-193.2,663.1z"/>
		<path class="st1" d="M-170.2,655.3c-0.5,0-0.9-0.2-1.3-0.5c-2.4-2.4-3.7-5.6-3.7-8.9c0-3.3,1.3-6.4,3.8-8.8c0.7-0.7,1.8-0.7,2.5,0    s0.7,1.8,0,2.5c-1.7,1.7-2.7,4-2.7,6.3c0,2.3,0.9,4.6,2.7,6.3c0.7,0.7,0.7,1.8,0,2.5C-169.3,655.1-169.7,655.3-170.2,655.3z"/>
		<path class="st1" d="M-220.8,635.5c-0.5,0-0.9-0.2-1.3-0.5c-0.7-0.7-0.7-1.8,0-2.5c1.7-1.7,2.7-4,2.7-6.5c0-2.4-1-4.8-2.7-6.5    c-0.7-0.7-0.7-1.8,0-2.5c0.7-0.7,1.8-0.7,2.5,0c2.4,2.4,3.7,5.6,3.7,9c0,3.4-1.3,6.6-3.7,9C-219.9,635.3-220.4,635.5-220.8,635.5z    "/>
		<path class="st1" d="M-195.8,651.9c-4.3,0-8.3-1.7-11.3-4.7c-6.3-6.3-6.3-16.4,0-22.7c3-3,7.1-4.7,11.3-4.7s8.3,1.7,11.3,4.7    c6.3,6.3,6.3,16.4,0,22.7C-187.5,650.2-191.6,651.9-195.8,651.9z M-195.8,623.4c-3.3,0-6.5,1.3-8.8,3.6c-4.9,4.9-4.9,12.8,0,17.6    c2.4,2.4,5.5,3.6,8.8,3.6s6.5-1.3,8.8-3.6c4.9-4.9,4.9-12.8,0-17.6C-189.4,624.7-192.5,623.4-195.8,623.4z"/>
	</g>
</g>
<g id="Layer_2">
	<path fill="#339966" class="st1" d="M-133.2,411.5c-0.5,0.5-1.1,0.8-1.7,1c-0.6,0.1-1.3,0-2-0.3c-0.7-0.3-1.4-0.8-2.1-1.5c-0.7-0.7-1.2-1.4-1.4-2   c-0.3-0.7-0.4-1.3-0.3-1.8c0.1-0.5,0.3-1,0.6-1.3c0.2-0.2,0.5-0.3,0.7-0.3c0.3,0,0.6,0.1,0.8,0.3c0.2,0.2,0.3,0.4,0.3,0.6   c0,0.2,0,0.4-0.1,0.7c-0.1,0.5-0.2,1,0,1.4c0.1,0.4,0.4,0.9,0.9,1.3c0.4,0.4,0.8,0.6,1.2,0.7c0.4,0.1,0.7,0,0.9-0.2   c0.3-0.3,0.4-0.7,0.3-1.1c-0.1-0.4-0.4-1-0.8-1.7c-0.5-0.8-0.9-1.5-1.1-2.1c-0.2-0.6-0.3-1.1-0.3-1.7c0-0.5,0.3-1,0.7-1.4   c0.4-0.4,0.8-0.6,1.4-0.7c0.6-0.1,1.2-0.1,1.8,0.2c0.6,0.2,1.3,0.7,1.9,1.3c0.5,0.5,0.9,1,1.2,1.5c0.3,0.5,0.5,0.9,0.6,1.4   c0.1,0.4,0.1,0.8,0,1.2c-0.1,0.3-0.2,0.6-0.4,0.8c-0.2,0.2-0.5,0.3-0.7,0.3c-0.3,0-0.6-0.1-0.8-0.4c-0.2-0.2-0.3-0.4-0.3-0.7   c0-0.2,0-0.6,0-1c0-0.3,0-0.6-0.1-0.9c-0.1-0.3-0.3-0.6-0.6-0.9c-0.3-0.3-0.7-0.5-1.1-0.6c-0.4-0.1-0.7,0-0.9,0.2   c-0.2,0.2-0.3,0.4-0.2,0.7c0,0.3,0.2,0.6,0.4,1c0.2,0.4,0.5,0.8,0.9,1.5c0.4,0.7,0.8,1.4,0.9,1.9c0.2,0.6,0.2,1.1,0.2,1.5   C-132.7,410.8-132.9,411.2-133.2,411.5z"/>
	<path fill="#339966" class="st1" d="M-139.9,413.2c-0.3,0-0.7-0.1-0.9-0.4c-0.5-0.5-0.5-1.4,0-1.9l9.5-9.5c0.5-0.5,1.4-0.5,1.9,0   c0.5,0.5,0.5,1.4,0,1.9l-9.5,9.5C-139.2,413.1-139.6,413.2-139.9,413.2z"/>
	<g transform="translate(11.31012563937032, 11.470725530118692), scale(0.7475194914833391)">
		<path class="st1" d="M-185.7,564.6c-0.5,0-0.9-0.2-1.3-0.5l-43.5-43.5c-0.3-0.3-0.5-0.8-0.5-1.3c0-0.5,0.2-0.9,0.5-1.3l23.4-23.4    c0.7-0.7,1.9-0.7,2.5,0l43.5,43.5c0.3,0.3,0.5,0.8,0.5,1.3s-0.2,0.9-0.5,1.3l-23.4,23.4C-184.8,564.4-185.3,564.6-185.7,564.6z     M-226.7,519.3l41,41l20.9-20.9l-41-41L-226.7,519.3z"/>
		<path class="st1" d="M-205.5,509.3C-205.5,509.3-205.5,509.3-205.5,509.3c-3.4,0-6.6-1.3-9-3.7c-0.7-0.7-0.7-1.8,0-2.5    c0.7-0.7,1.8-0.7,2.5,0c1.7,1.7,4,2.7,6.5,2.7c0,0,0,0,0,0c2.4,0,4.8-1,6.5-2.7c0.7-0.7,1.8-0.7,2.5,0c0.7,0.7,0.7,1.8,0,2.5    C-198.9,508-202.1,509.3-205.5,509.3z"/>
		<path class="st1" d="M-193.2,556.8c-0.5,0-0.9-0.2-1.3-0.5c-0.7-0.7-0.7-1.8,0-2.5c5-5,13.1-5,18,0c0.7,0.7,0.7,1.8,0,2.5    c-0.7,0.7-1.8,0.7-2.5,0c-3.6-3.6-9.4-3.6-13,0C-192.3,556.6-192.7,556.8-193.2,556.8z"/>
		<path class="st1" d="M-170.2,548.9c-0.5,0-0.9-0.2-1.3-0.5c-2.4-2.4-3.7-5.6-3.7-8.9c0-3.3,1.3-6.4,3.8-8.8c0.7-0.7,1.8-0.7,2.5,0    c0.7,0.7,0.7,1.8,0,2.5c-1.7,1.7-2.7,4-2.7,6.3c0,2.3,0.9,4.6,2.7,6.3c0.7,0.7,0.7,1.8,0,2.5    C-169.3,548.7-169.7,548.9-170.2,548.9z"/>
		<path class="st1" d="M-220.8,529.1c-0.5,0-0.9-0.2-1.3-0.5c-0.7-0.7-0.7-1.8,0-2.5c1.7-1.7,2.7-4,2.7-6.5c0-2.4-1-4.8-2.7-6.5    c-0.7-0.7-0.7-1.8,0-2.5c0.7-0.7,1.8-0.7,2.5,0c2.4,2.4,3.7,5.6,3.7,9c0,3.4-1.3,6.6-3.7,9C-219.9,529-220.4,529.1-220.8,529.1z"/>
		<path class="st1" d="M-195.8,545.5c-4.3,0-8.3-1.7-11.3-4.7c-6.3-6.3-6.3-16.4,0-22.7c3-3,7.1-4.7,11.3-4.7s8.3,1.7,11.3,4.7    c6.3,6.3,6.3,16.4,0,22.7C-187.5,543.9-191.6,545.5-195.8,545.5z M-195.8,517c-3.3,0-6.5,1.3-8.8,3.6c-4.9,4.9-4.9,12.8,0,17.6    c2.4,2.4,5.5,3.6,8.8,3.6s6.5-1.3,8.8-3.6c4.9-4.9,4.9-12.8,0-17.6C-189.4,518.3-192.5,517-195.8,517z"/>
	</g>
</g>
	</g>
</defs><g>
	<pattern patternUnits="userSpaceOnUse" id="pattern_L1_0" height="157" width="157">
	<use xlink:href="#L1_0" x="-350" y="-350"/>
	<use xlink:href="#L1_0" x="0" y="-350"/>
	<use xlink:href="#L1_0" x="350" y="-350"/>
	<use xlink:href="#L1_0" x="-350" y="0"/>
	<use xlink:href="#L1_0" x="0" y="0"/>
	<use xlink:href="#L1_0" x="350" y="0"/>
	<use xlink:href="#L1_0" x="-350" y="350"/>
	<use xlink:href="#L1_0" x="0" y="350"/>
	<use xlink:href="#L1_0" x="350" y="350"/>
	</pattern>
	<rect x="0" y="0" width="100%" height="100%" fill="url(#pattern_L1_0)"/>
</g>
</svg>